<mxfile host="app.diagrams.net" modified="2022-06-20T12:14:49.743Z" agent="5.0 (Macintosh; Intel Mac OS X 10_15_7) AppleWebKit/537.36 (KHTML, like Gecko) Chrome/102.0.5005.124 Safari/537.36 Edg/102.0.1245.41" etag="ferYxCcDirS12ezamXq9" version="19.0.3" type="github" pages="2">
  <diagram id="HS0wQoJ3kTfo8EUwEemg" name="Page-1">
    <mxGraphModel dx="1186" dy="773" grid="1" gridSize="10" guides="1" tooltips="1" connect="1" arrows="1" fold="1" page="1" pageScale="1" pageWidth="827" pageHeight="1169" math="0" shadow="0">
      <root>
        <mxCell id="0" />
        <mxCell id="1" parent="0" />
        <mxCell id="h4840edSX-A7vX6KZRWL-10" value="" style="rounded=0;whiteSpace=wrap;html=1;fillColor=#d5e8d4;strokeColor=#82b366;" vertex="1" parent="1">
          <mxGeometry x="780" y="180" width="710" height="447.5" as="geometry" />
        </mxCell>
        <mxCell id="h4840edSX-A7vX6KZRWL-8" value="" style="rounded=0;whiteSpace=wrap;html=1;fillColor=#f5f5f5;strokeColor=#666666;fontColor=#333333;" vertex="1" parent="1">
          <mxGeometry x="360" y="180" width="280" height="447.5" as="geometry" />
        </mxCell>
        <mxCell id="FQJNMX1grYCMUF250okw-8" style="edgeStyle=orthogonalEdgeStyle;rounded=0;orthogonalLoop=1;jettySize=auto;html=1;fontFamily=Comic Sans MS;sketch=1;" parent="1" source="FQJNMX1grYCMUF250okw-1" target="FQJNMX1grYCMUF250okw-3" edge="1">
          <mxGeometry relative="1" as="geometry" />
        </mxCell>
        <mxCell id="FQJNMX1grYCMUF250okw-9" style="edgeStyle=orthogonalEdgeStyle;rounded=0;orthogonalLoop=1;jettySize=auto;html=1;entryX=0.667;entryY=-0.025;entryDx=0;entryDy=0;entryPerimeter=0;fontFamily=Comic Sans MS;sketch=1;" parent="1" source="FQJNMX1grYCMUF250okw-1" target="FQJNMX1grYCMUF250okw-5" edge="1">
          <mxGeometry relative="1" as="geometry" />
        </mxCell>
        <mxCell id="FQJNMX1grYCMUF250okw-10" style="edgeStyle=orthogonalEdgeStyle;rounded=0;orthogonalLoop=1;jettySize=auto;html=1;entryX=0.667;entryY=-0.025;entryDx=0;entryDy=0;entryPerimeter=0;fontFamily=Comic Sans MS;sketch=1;" parent="1" source="FQJNMX1grYCMUF250okw-1" target="FQJNMX1grYCMUF250okw-7" edge="1">
          <mxGeometry relative="1" as="geometry" />
        </mxCell>
        <mxCell id="FQJNMX1grYCMUF250okw-1" value="&lt;span style=&quot;font-family: &amp;quot;Comic Sans MS&amp;quot;;&quot;&gt;patsnap_user&lt;/span&gt;" style="whiteSpace=wrap;html=1;sketch=1;fillColor=#fff2cc;strokeColor=#d6b656;fillStyle=solid;" parent="1" vertex="1">
          <mxGeometry x="974" y="360" width="110" height="50" as="geometry" />
        </mxCell>
        <mxCell id="FQJNMX1grYCMUF250okw-2" value="&lt;span style=&quot;font-family: &amp;quot;Comic Sans MS&amp;quot;;&quot;&gt;tenant_user&lt;/span&gt;" style="whiteSpace=wrap;html=1;sketch=1;fillColor=#fff2cc;strokeColor=#d6b656;fillStyle=solid;" parent="1" vertex="1">
          <mxGeometry x="804" y="490" width="110" height="50" as="geometry" />
        </mxCell>
        <mxCell id="FQJNMX1grYCMUF250okw-3" value="Tenant1" style="text;html=1;align=center;verticalAlign=middle;resizable=0;points=[];autosize=1;strokeColor=none;fillColor=none;fontFamily=Comic Sans MS;" parent="1" vertex="1">
          <mxGeometry x="829" y="470" width="60" height="20" as="geometry" />
        </mxCell>
        <mxCell id="FQJNMX1grYCMUF250okw-4" value="&lt;span style=&quot;font-family: &amp;quot;Comic Sans MS&amp;quot;;&quot;&gt;tenant_user&lt;/span&gt;" style="whiteSpace=wrap;html=1;sketch=1;fillColor=#fff2cc;strokeColor=#d6b656;fillStyle=solid;" parent="1" vertex="1">
          <mxGeometry x="964" y="490" width="110" height="50" as="geometry" />
        </mxCell>
        <mxCell id="FQJNMX1grYCMUF250okw-5" value="Tenant2" style="text;html=1;align=center;verticalAlign=middle;resizable=0;points=[];autosize=1;strokeColor=none;fillColor=none;fontFamily=Comic Sans MS;" parent="1" vertex="1">
          <mxGeometry x="989" y="470" width="60" height="20" as="geometry" />
        </mxCell>
        <mxCell id="FQJNMX1grYCMUF250okw-6" value="&lt;span style=&quot;font-family: &amp;quot;Comic Sans MS&amp;quot;;&quot;&gt;tenant_user&lt;/span&gt;" style="whiteSpace=wrap;html=1;sketch=1;fillColor=#fff2cc;strokeColor=#d6b656;fillStyle=solid;" parent="1" vertex="1">
          <mxGeometry x="1134" y="490" width="110" height="50" as="geometry" />
        </mxCell>
        <mxCell id="FQJNMX1grYCMUF250okw-7" value="TenantN" style="text;html=1;align=center;verticalAlign=middle;resizable=0;points=[];autosize=1;strokeColor=none;fillColor=none;fontFamily=Comic Sans MS;" parent="1" vertex="1">
          <mxGeometry x="1159" y="470" width="60" height="20" as="geometry" />
        </mxCell>
        <mxCell id="FQJNMX1grYCMUF250okw-11" value="&lt;div style=&quot;text-align: left;&quot;&gt;&lt;span style=&quot;background-color: initial;&quot;&gt;1. id&lt;/span&gt;&lt;/div&gt;&lt;div style=&quot;text-align: left;&quot;&gt;&lt;span style=&quot;background-color: initial;&quot;&gt;2. email&lt;/span&gt;&lt;/div&gt;&lt;div style=&quot;text-align: left;&quot;&gt;&lt;span style=&quot;background-color: initial;&quot;&gt;3. mobile&lt;/span&gt;&lt;/div&gt;&lt;div style=&quot;text-align: left;&quot;&gt;&lt;span style=&quot;background-color: initial;&quot;&gt;4. pwd&lt;/span&gt;&lt;/div&gt;&lt;div style=&quot;text-align: left;&quot;&gt;&lt;span style=&quot;background-color: initial;&quot;&gt;5. nickname&lt;/span&gt;&lt;/div&gt;" style="shape=note;whiteSpace=wrap;html=1;backgroundOutline=1;darkOpacity=0.05;sketch=1;fontFamily=Comic Sans MS;" parent="1" vertex="1">
          <mxGeometry x="1174" y="200" width="80" height="110" as="geometry" />
        </mxCell>
        <mxCell id="FQJNMX1grYCMUF250okw-12" value="&lt;div style=&quot;text-align: left;&quot;&gt;&lt;span style=&quot;background-color: initial;&quot;&gt;1.&amp;nbsp;&lt;/span&gt;&lt;span style=&quot;background-color: initial;&quot;&gt;patsnap_user_id&lt;/span&gt;&lt;/div&gt;&lt;div style=&quot;text-align: left;&quot;&gt;&lt;span style=&quot;background-color: initial;&quot;&gt;2. id&lt;/span&gt;&lt;/div&gt;&lt;div style=&quot;text-align: left;&quot;&gt;&lt;span style=&quot;background-color: initial;&quot;&gt;3. tenant_id&lt;/span&gt;&lt;/div&gt;&lt;div style=&quot;text-align: left;&quot;&gt;&lt;span style=&quot;background-color: initial;&quot;&gt;4. last_login&lt;/span&gt;&lt;/div&gt;" style="shape=note;whiteSpace=wrap;html=1;backgroundOutline=1;darkOpacity=0.05;sketch=1;fontFamily=Comic Sans MS;" parent="1" vertex="1">
          <mxGeometry x="1304" y="375" width="160" height="95" as="geometry" />
        </mxCell>
        <mxCell id="FQJNMX1grYCMUF250okw-14" value="" style="endArrow=none;html=1;strokeWidth=2;rounded=0;fontFamily=Comic Sans MS;entryX=1;entryY=0;entryDx=0;entryDy=0;exitX=0;exitY=1;exitDx=0;exitDy=0;exitPerimeter=0;sketch=1;" parent="1" source="FQJNMX1grYCMUF250okw-11" target="FQJNMX1grYCMUF250okw-1" edge="1">
          <mxGeometry width="50" height="50" relative="1" as="geometry">
            <mxPoint x="1034" y="500" as="sourcePoint" />
            <mxPoint x="1084" y="450" as="targetPoint" />
          </mxGeometry>
        </mxCell>
        <mxCell id="FQJNMX1grYCMUF250okw-15" value="" style="endArrow=none;html=1;rounded=0;fontFamily=Comic Sans MS;entryX=0;entryY=1;entryDx=0;entryDy=0;entryPerimeter=0;exitX=1;exitY=0.25;exitDx=0;exitDy=0;sketch=1;" parent="1" source="FQJNMX1grYCMUF250okw-6" target="FQJNMX1grYCMUF250okw-12" edge="1">
          <mxGeometry width="50" height="50" relative="1" as="geometry">
            <mxPoint x="774" y="530" as="sourcePoint" />
            <mxPoint x="1084" y="450" as="targetPoint" />
          </mxGeometry>
        </mxCell>
        <mxCell id="h4840edSX-A7vX6KZRWL-3" value="&lt;span style=&quot;font-family: &amp;quot;Comic Sans MS&amp;quot;;&quot;&gt;identity_account&lt;/span&gt;" style="whiteSpace=wrap;html=1;sketch=1;fillColor=#fff2cc;strokeColor=#d6b656;fillStyle=solid;" vertex="1" parent="1">
          <mxGeometry x="500" y="437.5" width="110" height="50" as="geometry" />
        </mxCell>
        <mxCell id="h4840edSX-A7vX6KZRWL-4" value="&lt;div style=&quot;text-align: left;&quot;&gt;&lt;span style=&quot;background-color: initial;&quot;&gt;1. id&lt;/span&gt;&lt;/div&gt;&lt;div style=&quot;text-align: left;&quot;&gt;&lt;span style=&quot;background-color: initial;&quot;&gt;2. email&lt;/span&gt;&lt;/div&gt;&lt;div style=&quot;text-align: left;&quot;&gt;&lt;span style=&quot;background-color: initial;&quot;&gt;3. mobile&lt;/span&gt;&lt;/div&gt;&lt;div style=&quot;text-align: left;&quot;&gt;&lt;span style=&quot;background-color: initial;&quot;&gt;4. pwd&lt;/span&gt;&lt;/div&gt;&lt;div style=&quot;text-align: left;&quot;&gt;&lt;span style=&quot;background-color: initial;&quot;&gt;5. nickname&lt;/span&gt;&lt;/div&gt;&lt;div style=&quot;text-align: left;&quot;&gt;&lt;span style=&quot;background-color: initial;&quot;&gt;6. last_login&lt;/span&gt;&lt;/div&gt;&lt;div style=&quot;text-align: left;&quot;&gt;&lt;span style=&quot;background-color: initial;&quot;&gt;7.company_id&lt;/span&gt;&lt;/div&gt;" style="shape=note;whiteSpace=wrap;html=1;backgroundOutline=1;darkOpacity=0.05;sketch=1;fontFamily=Comic Sans MS;" vertex="1" parent="1">
          <mxGeometry x="380" y="247.5" width="80" height="110" as="geometry" />
        </mxCell>
        <mxCell id="h4840edSX-A7vX6KZRWL-5" value="" style="endArrow=none;html=1;rounded=0;fontFamily=Comic Sans MS;entryX=1;entryY=1;entryDx=0;entryDy=0;entryPerimeter=0;exitX=0;exitY=0;exitDx=0;exitDy=0;sketch=1;" edge="1" parent="1" source="h4840edSX-A7vX6KZRWL-3" target="h4840edSX-A7vX6KZRWL-4">
          <mxGeometry width="50" height="50" relative="1" as="geometry">
            <mxPoint x="560" y="427.5" as="sourcePoint" />
            <mxPoint x="620" y="395" as="targetPoint" />
          </mxGeometry>
        </mxCell>
        <mxCell id="h4840edSX-A7vX6KZRWL-6" value="" style="shape=flexArrow;endArrow=classic;html=1;rounded=0;sketch=1;" edge="1" parent="1">
          <mxGeometry width="50" height="50" relative="1" as="geometry">
            <mxPoint x="680" y="430" as="sourcePoint" />
            <mxPoint x="750" y="430" as="targetPoint" />
          </mxGeometry>
        </mxCell>
        <mxCell id="h4840edSX-A7vX6KZRWL-12" value="&lt;font face=&quot;Comic Sans MS&quot;&gt;Multi-Tenant&lt;/font&gt;" style="text;html=1;align=center;verticalAlign=middle;resizable=0;points=[];autosize=1;strokeColor=none;fillColor=none;" vertex="1" parent="1">
          <mxGeometry x="670" y="393.75" width="90" height="20" as="geometry" />
        </mxCell>
        <mxCell id="bHPeZ8qPezho1J0pAmP7-1" value="&lt;font style=&quot;font-size: 18px;&quot;&gt;Identity Account 表拆分&lt;/font&gt;" style="text;html=1;align=center;verticalAlign=middle;resizable=0;points=[];autosize=1;strokeColor=none;fillColor=none;fontFamily=Comic Sans MS;" vertex="1" parent="1">
          <mxGeometry x="754" y="120" width="220" height="20" as="geometry" />
        </mxCell>
        <mxCell id="NgmRl63EidL6zqDe2egT-1" value="" style="rounded=0;whiteSpace=wrap;html=1;fontFamily=Comic Sans MS;fontSize=10;fillColor=#d5e8d4;strokeColor=#82b366;" vertex="1" parent="1">
          <mxGeometry x="1520" y="180" width="60" height="20" as="geometry" />
        </mxCell>
        <mxCell id="NgmRl63EidL6zqDe2egT-2" value="" style="rounded=0;whiteSpace=wrap;html=1;fontFamily=Comic Sans MS;fontSize=10;fillColor=#f5f5f5;strokeColor=#666666;fontColor=#333333;" vertex="1" parent="1">
          <mxGeometry x="1520" y="140" width="60" height="20" as="geometry" />
        </mxCell>
        <mxCell id="NgmRl63EidL6zqDe2egT-3" value="" style="rounded=0;whiteSpace=wrap;html=1;fontFamily=Comic Sans MS;fontSize=10;fillColor=#fff2cc;strokeColor=#d6b656;" vertex="1" parent="1">
          <mxGeometry x="1520" y="220" width="60" height="20" as="geometry" />
        </mxCell>
        <mxCell id="NgmRl63EidL6zqDe2egT-4" value="Before" style="text;html=1;align=center;verticalAlign=middle;resizable=0;points=[];autosize=1;strokeColor=none;fillColor=none;fontSize=10;fontFamily=Comic Sans MS;" vertex="1" parent="1">
          <mxGeometry x="1585" y="140" width="50" height="20" as="geometry" />
        </mxCell>
        <mxCell id="NgmRl63EidL6zqDe2egT-6" value="After" style="text;html=1;align=center;verticalAlign=middle;resizable=0;points=[];autosize=1;strokeColor=none;fillColor=none;fontSize=10;fontFamily=Comic Sans MS;" vertex="1" parent="1">
          <mxGeometry x="1585" y="180" width="50" height="20" as="geometry" />
        </mxCell>
        <mxCell id="NgmRl63EidL6zqDe2egT-7" value="Table" style="text;html=1;align=center;verticalAlign=middle;resizable=0;points=[];autosize=1;strokeColor=none;fillColor=none;fontSize=10;fontFamily=Comic Sans MS;" vertex="1" parent="1">
          <mxGeometry x="1585" y="220" width="50" height="20" as="geometry" />
        </mxCell>
      </root>
    </mxGraphModel>
  </diagram>
  <diagram id="jLfUoySHAl5AV9KpCd5u" name="Page-2">
    <mxGraphModel dx="1186" dy="773" grid="1" gridSize="10" guides="1" tooltips="1" connect="1" arrows="1" fold="1" page="1" pageScale="1" pageWidth="827" pageHeight="1169" math="0" shadow="0">
      <root>
        <mxCell id="0" />
        <mxCell id="1" parent="0" />
        <mxCell id="Ctjfz6E3C_8CAc5TIEOn-2" value="" style="rounded=0;whiteSpace=wrap;html=1;fillStyle=solid;fontFamily=Comic Sans MS;fontSize=10;fillColor=default;" vertex="1" parent="1">
          <mxGeometry x="777.5" y="151" width="612.5" height="930" as="geometry" />
        </mxCell>
        <mxCell id="Ctjfz6E3C_8CAc5TIEOn-1" value="" style="rounded=0;whiteSpace=wrap;html=1;fillStyle=solid;fontFamily=Comic Sans MS;fontSize=10;fillColor=default;" vertex="1" parent="1">
          <mxGeometry x="10" y="320" width="640" height="580" as="geometry" />
        </mxCell>
        <mxCell id="3neiedSfOhpBUjfjLAKO-6" value="&lt;span style=&quot;font-family: &amp;quot;Comic Sans MS&amp;quot;;&quot;&gt;patsnap_user&lt;/span&gt;" style="whiteSpace=wrap;html=1;sketch=1;fillColor=#f8cecc;strokeColor=#b85450;fillStyle=solid;" vertex="1" parent="1">
          <mxGeometry x="989" y="350" width="110" height="50" as="geometry" />
        </mxCell>
        <mxCell id="3neiedSfOhpBUjfjLAKO-7" value="&lt;span style=&quot;font-family: &amp;quot;Comic Sans MS&amp;quot;;&quot;&gt;tenant_user&lt;/span&gt;" style="whiteSpace=wrap;html=1;sketch=1;fillColor=#dae8fc;strokeColor=#6c8ebf;fillStyle=solid;" vertex="1" parent="1">
          <mxGeometry x="1020" y="830" width="110" height="50" as="geometry" />
        </mxCell>
        <mxCell id="3neiedSfOhpBUjfjLAKO-15" value="" style="endArrow=none;dashed=1;html=1;dashPattern=1 3;strokeWidth=2;rounded=0;fontFamily=Comic Sans MS;entryX=1;entryY=0;entryDx=0;entryDy=0;exitX=0;exitY=0.5;exitDx=0;exitDy=0;sketch=1;" edge="1" parent="1" source="0g1072mod6FUskHtr54z-43" target="3neiedSfOhpBUjfjLAKO-6">
          <mxGeometry width="50" height="50" relative="1" as="geometry">
            <mxPoint x="1174" y="310" as="sourcePoint" />
            <mxPoint x="1084" y="450" as="targetPoint" />
          </mxGeometry>
        </mxCell>
        <mxCell id="3neiedSfOhpBUjfjLAKO-16" value="" style="endArrow=none;dashed=1;html=1;rounded=0;fontFamily=Comic Sans MS;entryX=0;entryY=0.5;entryDx=0;entryDy=0;exitX=1;exitY=0.25;exitDx=0;exitDy=0;sketch=1;" edge="1" parent="1" source="3neiedSfOhpBUjfjLAKO-7" target="0g1072mod6FUskHtr54z-52">
          <mxGeometry width="50" height="50" relative="1" as="geometry">
            <mxPoint x="1159" y="860" as="sourcePoint" />
            <mxPoint x="1219" y="827.5" as="targetPoint" />
          </mxGeometry>
        </mxCell>
        <mxCell id="3neiedSfOhpBUjfjLAKO-17" value="&lt;span style=&quot;font-family: &amp;quot;Comic Sans MS&amp;quot;;&quot;&gt;identity_account&lt;/span&gt;" style="whiteSpace=wrap;html=1;sketch=1;fillColor=#fff2cc;strokeColor=#d6b656;fillStyle=solid;" vertex="1" parent="1">
          <mxGeometry x="270" y="536" width="110" height="50" as="geometry" />
        </mxCell>
        <mxCell id="3neiedSfOhpBUjfjLAKO-19" value="" style="endArrow=none;dashed=1;html=1;rounded=0;fontFamily=Comic Sans MS;entryX=1;entryY=0.5;entryDx=0;entryDy=0;exitX=0;exitY=0;exitDx=0;exitDy=0;sketch=1;" edge="1" parent="1" source="3neiedSfOhpBUjfjLAKO-17" target="0g1072mod6FUskHtr54z-19">
          <mxGeometry width="50" height="50" relative="1" as="geometry">
            <mxPoint x="409" y="526" as="sourcePoint" />
            <mxPoint x="309" y="456" as="targetPoint" />
          </mxGeometry>
        </mxCell>
        <mxCell id="3neiedSfOhpBUjfjLAKO-20" value="" style="shape=flexArrow;endArrow=classic;html=1;rounded=0;sketch=1;" edge="1" parent="1">
          <mxGeometry width="50" height="50" relative="1" as="geometry">
            <mxPoint x="690" y="602.25" as="sourcePoint" />
            <mxPoint x="760" y="602.25" as="targetPoint" />
          </mxGeometry>
        </mxCell>
        <mxCell id="3neiedSfOhpBUjfjLAKO-21" value="&lt;font face=&quot;Comic Sans MS&quot;&gt;Multi-Tenant&lt;/font&gt;" style="text;html=1;align=center;verticalAlign=middle;resizable=0;points=[];autosize=1;strokeColor=none;fillColor=none;" vertex="1" parent="1">
          <mxGeometry x="680" y="566" width="90" height="20" as="geometry" />
        </mxCell>
        <mxCell id="3neiedSfOhpBUjfjLAKO-22" value="&lt;font style=&quot;font-size: 18px;&quot;&gt;User 关联表拆分&lt;/font&gt;" style="text;html=1;align=center;verticalAlign=middle;resizable=0;points=[];autosize=1;strokeColor=none;fillColor=none;fontFamily=Comic Sans MS;" vertex="1" parent="1">
          <mxGeometry x="620" y="120" width="150" height="20" as="geometry" />
        </mxCell>
        <mxCell id="0g1072mod6FUskHtr54z-7" value="&lt;font face=&quot;Comic Sans MS&quot;&gt;bop_account_last_login&lt;/font&gt;" style="whiteSpace=wrap;html=1;sketch=1;fillColor=#fff2cc;strokeColor=#d6b656;fillStyle=solid;" vertex="1" parent="1">
          <mxGeometry x="50" y="646" width="140" height="50" as="geometry" />
        </mxCell>
        <mxCell id="0g1072mod6FUskHtr54z-8" value="&lt;span style=&quot;font-family: &amp;quot;Comic Sans MS&amp;quot;;&quot;&gt;identity_account_privilege&lt;/span&gt;" style="whiteSpace=wrap;html=1;sketch=1;fillColor=#fff2cc;strokeColor=#d6b656;fillStyle=solid;" vertex="1" parent="1">
          <mxGeometry x="311.5" y="350" width="155" height="50" as="geometry" />
        </mxCell>
        <mxCell id="0g1072mod6FUskHtr54z-9" value="&lt;span style=&quot;font-family: &amp;quot;Comic Sans MS&amp;quot;;&quot;&gt;identity_account_profile&lt;/span&gt;" style="whiteSpace=wrap;html=1;sketch=1;fillColor=#fff2cc;strokeColor=#d6b656;fillStyle=solid;" vertex="1" parent="1">
          <mxGeometry x="370" y="416" width="155" height="50" as="geometry" />
        </mxCell>
        <mxCell id="0g1072mod6FUskHtr54z-10" value="&lt;span style=&quot;font-family: &amp;quot;Comic Sans MS&amp;quot;;&quot;&gt;identity_account_wechat&lt;/span&gt;" style="whiteSpace=wrap;html=1;sketch=1;fillColor=#fff2cc;strokeColor=#d6b656;fillStyle=solid;" vertex="1" parent="1">
          <mxGeometry x="450" y="476" width="155" height="50" as="geometry" />
        </mxCell>
        <mxCell id="0g1072mod6FUskHtr54z-11" value="&lt;span style=&quot;font-family: &amp;quot;Comic Sans MS&amp;quot;;&quot;&gt;bop_user_information&lt;/span&gt;" style="whiteSpace=wrap;html=1;sketch=1;fillColor=#fff2cc;strokeColor=#d6b656;fillStyle=solid;" vertex="1" parent="1">
          <mxGeometry x="430" y="626" width="155" height="50" as="geometry" />
        </mxCell>
        <mxCell id="0g1072mod6FUskHtr54z-12" value="&lt;span style=&quot;font-family: &amp;quot;Comic Sans MS&amp;quot;;&quot;&gt;bop_user_password&lt;/span&gt;" style="whiteSpace=wrap;html=1;sketch=1;fillColor=#fff2cc;strokeColor=#d6b656;fillStyle=solid;" vertex="1" parent="1">
          <mxGeometry x="410" y="696" width="155" height="50" as="geometry" />
        </mxCell>
        <mxCell id="0g1072mod6FUskHtr54z-13" value="&lt;span style=&quot;font-family: &amp;quot;Comic Sans MS&amp;quot;;&quot;&gt;bop_user_policy&lt;/span&gt;" style="whiteSpace=wrap;html=1;sketch=1;fillColor=#fff2cc;strokeColor=#d6b656;fillStyle=solid;" vertex="1" parent="1">
          <mxGeometry x="340" y="766" width="155" height="50" as="geometry" />
        </mxCell>
        <mxCell id="0g1072mod6FUskHtr54z-14" value="&lt;span style=&quot;font-family: &amp;quot;Comic Sans MS&amp;quot;;&quot;&gt;bop_user_product_register&lt;/span&gt;" style="whiteSpace=wrap;html=1;sketch=1;fillColor=#fff2cc;strokeColor=#d6b656;fillStyle=solid;" vertex="1" parent="1">
          <mxGeometry x="237.5" y="826" width="155" height="50" as="geometry" />
        </mxCell>
        <mxCell id="0g1072mod6FUskHtr54z-15" value="&lt;span style=&quot;font-family: &amp;quot;Comic Sans MS&amp;quot;;&quot;&gt;bop_user_settings&lt;/span&gt;" style="whiteSpace=wrap;html=1;sketch=1;fillColor=#fff2cc;strokeColor=#d6b656;fillStyle=solid;" vertex="1" parent="1">
          <mxGeometry x="100" y="766" width="155" height="50" as="geometry" />
        </mxCell>
        <mxCell id="0g1072mod6FUskHtr54z-16" value="&lt;span style=&quot;font-family: &amp;quot;Comic Sans MS&amp;quot;;&quot;&gt;bop_working_case_item&lt;/span&gt;" style="whiteSpace=wrap;html=1;sketch=1;fillColor=#fff2cc;strokeColor=#d6b656;fillStyle=solid;" vertex="1" parent="1">
          <mxGeometry x="70" y="701" width="155" height="50" as="geometry" />
        </mxCell>
        <mxCell id="0g1072mod6FUskHtr54z-17" value="&lt;span style=&quot;font-family: &amp;quot;Comic Sans MS&amp;quot;;&quot;&gt;identity_account_binding&lt;/span&gt;" style="whiteSpace=wrap;html=1;sketch=1;fillColor=#fff2cc;strokeColor=#d6b656;fillStyle=solid;" vertex="1" parent="1">
          <mxGeometry x="130" y="350" width="155" height="50" as="geometry" />
        </mxCell>
        <mxCell id="0g1072mod6FUskHtr54z-18" value="&lt;font face=&quot;Comic Sans MS&quot;&gt;identity_account_company&lt;/font&gt;" style="whiteSpace=wrap;html=1;sketch=1;fillColor=#fff2cc;strokeColor=#d6b656;fillStyle=solid;" vertex="1" parent="1">
          <mxGeometry x="110" y="416" width="160" height="50" as="geometry" />
        </mxCell>
        <mxCell id="0g1072mod6FUskHtr54z-19" value="&lt;font face=&quot;Comic Sans MS&quot;&gt;identity_account_dingtalk&lt;/font&gt;" style="whiteSpace=wrap;html=1;sketch=1;fillColor=#fff2cc;strokeColor=#d6b656;fillStyle=solid;" vertex="1" parent="1">
          <mxGeometry x="30" y="476" width="160" height="50" as="geometry" />
        </mxCell>
        <mxCell id="0g1072mod6FUskHtr54z-20" value="&lt;font face=&quot;Comic Sans MS&quot;&gt;identity_account_role&lt;/font&gt;" style="whiteSpace=wrap;html=1;sketch=1;fillColor=#fff2cc;strokeColor=#d6b656;fillStyle=solid;" vertex="1" parent="1">
          <mxGeometry x="20" y="536" width="160" height="50" as="geometry" />
        </mxCell>
        <mxCell id="0g1072mod6FUskHtr54z-21" value="&lt;font face=&quot;Comic Sans MS&quot;&gt;identity_account_package&lt;/font&gt;" style="whiteSpace=wrap;html=1;sketch=1;fillColor=#fff2cc;strokeColor=#d6b656;fillStyle=solid;" vertex="1" parent="1">
          <mxGeometry x="30" y="591" width="160" height="50" as="geometry" />
        </mxCell>
        <mxCell id="0g1072mod6FUskHtr54z-22" value="&lt;font face=&quot;Comic Sans MS&quot;&gt;identity_session_kicked_log&lt;/font&gt;" style="whiteSpace=wrap;html=1;sketch=1;fillColor=#fff2cc;strokeColor=#d6b656;fillStyle=solid;" vertex="1" parent="1">
          <mxGeometry x="440" y="544.75" width="160" height="50" as="geometry" />
        </mxCell>
        <mxCell id="0g1072mod6FUskHtr54z-23" value="" style="endArrow=none;dashed=1;html=1;rounded=0;fontFamily=Comic Sans MS;entryX=1;entryY=1;entryDx=0;entryDy=0;exitX=0.25;exitY=0;exitDx=0;exitDy=0;sketch=1;" edge="1" parent="1" source="3neiedSfOhpBUjfjLAKO-17" target="0g1072mod6FUskHtr54z-18">
          <mxGeometry width="50" height="50" relative="1" as="geometry">
            <mxPoint x="280" y="546" as="sourcePoint" />
            <mxPoint x="200" y="536" as="targetPoint" />
          </mxGeometry>
        </mxCell>
        <mxCell id="0g1072mod6FUskHtr54z-24" value="" style="endArrow=none;dashed=1;html=1;rounded=0;fontFamily=Comic Sans MS;entryX=1;entryY=1;entryDx=0;entryDy=0;exitX=0.4;exitY=-0.06;exitDx=0;exitDy=0;sketch=1;exitPerimeter=0;" edge="1" parent="1" source="3neiedSfOhpBUjfjLAKO-17" target="0g1072mod6FUskHtr54z-17">
          <mxGeometry width="50" height="50" relative="1" as="geometry">
            <mxPoint x="307.5" y="546" as="sourcePoint" />
            <mxPoint x="280" y="476" as="targetPoint" />
          </mxGeometry>
        </mxCell>
        <mxCell id="0g1072mod6FUskHtr54z-25" value="" style="endArrow=none;dashed=1;html=1;rounded=0;fontFamily=Comic Sans MS;entryX=0.106;entryY=1;entryDx=0;entryDy=0;sketch=1;entryPerimeter=0;" edge="1" parent="1" target="0g1072mod6FUskHtr54z-8">
          <mxGeometry width="50" height="50" relative="1" as="geometry">
            <mxPoint x="324" y="536" as="sourcePoint" />
            <mxPoint x="295" y="410" as="targetPoint" />
          </mxGeometry>
        </mxCell>
        <mxCell id="0g1072mod6FUskHtr54z-26" value="" style="endArrow=none;dashed=1;html=1;rounded=0;fontFamily=Comic Sans MS;entryX=0;entryY=1;entryDx=0;entryDy=0;sketch=1;exitX=0.691;exitY=0;exitDx=0;exitDy=0;exitPerimeter=0;" edge="1" parent="1" source="3neiedSfOhpBUjfjLAKO-17" target="0g1072mod6FUskHtr54z-9">
          <mxGeometry width="50" height="50" relative="1" as="geometry">
            <mxPoint x="334" y="546" as="sourcePoint" />
            <mxPoint x="321.5" y="410" as="targetPoint" />
          </mxGeometry>
        </mxCell>
        <mxCell id="0g1072mod6FUskHtr54z-27" value="" style="endArrow=none;dashed=1;html=1;rounded=0;fontFamily=Comic Sans MS;entryX=0;entryY=0.5;entryDx=0;entryDy=0;sketch=1;" edge="1" parent="1" target="0g1072mod6FUskHtr54z-10">
          <mxGeometry width="50" height="50" relative="1" as="geometry">
            <mxPoint x="380" y="536" as="sourcePoint" />
            <mxPoint x="331.5" y="420" as="targetPoint" />
          </mxGeometry>
        </mxCell>
        <mxCell id="0g1072mod6FUskHtr54z-28" value="" style="endArrow=none;dashed=1;html=1;rounded=0;fontFamily=Comic Sans MS;entryX=0;entryY=0.5;entryDx=0;entryDy=0;sketch=1;exitX=1;exitY=0.25;exitDx=0;exitDy=0;" edge="1" parent="1" source="3neiedSfOhpBUjfjLAKO-17" target="0g1072mod6FUskHtr54z-22">
          <mxGeometry width="50" height="50" relative="1" as="geometry">
            <mxPoint x="380" y="545" as="sourcePoint" />
            <mxPoint x="460" y="536" as="targetPoint" />
          </mxGeometry>
        </mxCell>
        <mxCell id="0g1072mod6FUskHtr54z-29" value="" style="endArrow=none;dashed=1;html=1;rounded=0;fontFamily=Comic Sans MS;entryX=0;entryY=0;entryDx=0;entryDy=0;sketch=1;exitX=1;exitY=0.5;exitDx=0;exitDy=0;" edge="1" parent="1" source="3neiedSfOhpBUjfjLAKO-17" target="0g1072mod6FUskHtr54z-11">
          <mxGeometry width="50" height="50" relative="1" as="geometry">
            <mxPoint x="372.5" y="556" as="sourcePoint" />
            <mxPoint x="470" y="546" as="targetPoint" />
          </mxGeometry>
        </mxCell>
        <mxCell id="0g1072mod6FUskHtr54z-30" value="" style="endArrow=none;dashed=1;html=1;rounded=0;fontFamily=Comic Sans MS;entryX=0;entryY=0;entryDx=0;entryDy=0;sketch=1;exitX=1;exitY=1;exitDx=0;exitDy=0;" edge="1" parent="1" source="3neiedSfOhpBUjfjLAKO-17" target="0g1072mod6FUskHtr54z-12">
          <mxGeometry width="50" height="50" relative="1" as="geometry">
            <mxPoint x="382.5" y="566" as="sourcePoint" />
            <mxPoint x="480" y="556" as="targetPoint" />
          </mxGeometry>
        </mxCell>
        <mxCell id="0g1072mod6FUskHtr54z-31" value="" style="endArrow=none;dashed=1;html=1;rounded=0;fontFamily=Comic Sans MS;entryX=0.25;entryY=0;entryDx=0;entryDy=0;sketch=1;exitX=0.75;exitY=1;exitDx=0;exitDy=0;" edge="1" parent="1" source="3neiedSfOhpBUjfjLAKO-17" target="0g1072mod6FUskHtr54z-13">
          <mxGeometry width="50" height="50" relative="1" as="geometry">
            <mxPoint x="390" y="596" as="sourcePoint" />
            <mxPoint x="420" y="706" as="targetPoint" />
          </mxGeometry>
        </mxCell>
        <mxCell id="0g1072mod6FUskHtr54z-32" value="" style="endArrow=none;dashed=1;html=1;rounded=0;fontFamily=Comic Sans MS;entryX=0.5;entryY=0;entryDx=0;entryDy=0;sketch=1;exitX=0.5;exitY=1;exitDx=0;exitDy=0;" edge="1" parent="1" source="3neiedSfOhpBUjfjLAKO-17" target="0g1072mod6FUskHtr54z-14">
          <mxGeometry width="50" height="50" relative="1" as="geometry">
            <mxPoint x="362.5" y="596" as="sourcePoint" />
            <mxPoint x="388.75" y="776" as="targetPoint" />
          </mxGeometry>
        </mxCell>
        <mxCell id="0g1072mod6FUskHtr54z-33" value="" style="endArrow=none;dashed=1;html=1;rounded=0;fontFamily=Comic Sans MS;entryX=1;entryY=0;entryDx=0;entryDy=0;sketch=1;exitX=0.25;exitY=1;exitDx=0;exitDy=0;" edge="1" parent="1" source="3neiedSfOhpBUjfjLAKO-17" target="0g1072mod6FUskHtr54z-15">
          <mxGeometry width="50" height="50" relative="1" as="geometry">
            <mxPoint x="335" y="596" as="sourcePoint" />
            <mxPoint x="325" y="836" as="targetPoint" />
          </mxGeometry>
        </mxCell>
        <mxCell id="0g1072mod6FUskHtr54z-34" value="" style="endArrow=none;dashed=1;html=1;rounded=0;fontFamily=Comic Sans MS;entryX=1;entryY=0;entryDx=0;entryDy=0;sketch=1;exitX=0;exitY=1;exitDx=0;exitDy=0;" edge="1" parent="1" source="3neiedSfOhpBUjfjLAKO-17" target="0g1072mod6FUskHtr54z-16">
          <mxGeometry width="50" height="50" relative="1" as="geometry">
            <mxPoint x="307.5" y="596" as="sourcePoint" />
            <mxPoint x="265" y="776" as="targetPoint" />
          </mxGeometry>
        </mxCell>
        <mxCell id="0g1072mod6FUskHtr54z-35" value="" style="endArrow=none;dashed=1;html=1;rounded=0;fontFamily=Comic Sans MS;entryX=1;entryY=0;entryDx=0;entryDy=0;sketch=1;exitX=-0.009;exitY=0.64;exitDx=0;exitDy=0;exitPerimeter=0;" edge="1" parent="1" source="3neiedSfOhpBUjfjLAKO-17" target="0g1072mod6FUskHtr54z-7">
          <mxGeometry width="50" height="50" relative="1" as="geometry">
            <mxPoint x="280" y="596" as="sourcePoint" />
            <mxPoint x="235" y="711" as="targetPoint" />
          </mxGeometry>
        </mxCell>
        <mxCell id="0g1072mod6FUskHtr54z-36" value="" style="endArrow=none;dashed=1;html=1;rounded=0;fontFamily=Comic Sans MS;entryX=1;entryY=0;entryDx=0;entryDy=0;sketch=1;exitX=0;exitY=0.5;exitDx=0;exitDy=0;" edge="1" parent="1" source="3neiedSfOhpBUjfjLAKO-17" target="0g1072mod6FUskHtr54z-21">
          <mxGeometry width="50" height="50" relative="1" as="geometry">
            <mxPoint x="279.01" y="578" as="sourcePoint" />
            <mxPoint x="200" y="656" as="targetPoint" />
          </mxGeometry>
        </mxCell>
        <mxCell id="0g1072mod6FUskHtr54z-37" value="" style="endArrow=none;dashed=1;html=1;rounded=0;fontFamily=Comic Sans MS;entryX=1;entryY=0.5;entryDx=0;entryDy=0;sketch=1;exitX=0;exitY=0.25;exitDx=0;exitDy=0;" edge="1" parent="1" source="3neiedSfOhpBUjfjLAKO-17" target="0g1072mod6FUskHtr54z-20">
          <mxGeometry width="50" height="50" relative="1" as="geometry">
            <mxPoint x="280" y="571" as="sourcePoint" />
            <mxPoint x="200" y="601" as="targetPoint" />
          </mxGeometry>
        </mxCell>
        <mxCell id="0g1072mod6FUskHtr54z-38" value="&lt;span style=&quot;font-family: &amp;quot;Comic Sans MS&amp;quot;;&quot;&gt;identity_account_binding&lt;/span&gt;" style="whiteSpace=wrap;html=1;sketch=1;fillColor=#e1d5e7;strokeColor=#9673a6;fillStyle=solid;" vertex="1" parent="1">
          <mxGeometry x="811.5" y="234" width="155" height="50" as="geometry" />
        </mxCell>
        <mxCell id="0g1072mod6FUskHtr54z-39" value="&lt;span style=&quot;font-family: &amp;quot;Comic Sans MS&amp;quot;;&quot;&gt;identity_account_binding&lt;/span&gt;" style="whiteSpace=wrap;html=1;sketch=1;fillColor=#e1d5e7;strokeColor=#9673a6;fillStyle=solid;" vertex="1" parent="1">
          <mxGeometry x="800" y="830" width="155" height="50" as="geometry" />
        </mxCell>
        <mxCell id="0g1072mod6FUskHtr54z-40" value="&lt;span style=&quot;font-family: &amp;quot;Comic Sans MS&amp;quot;;&quot;&gt;identity_account_privilege&lt;/span&gt;" style="whiteSpace=wrap;html=1;sketch=1;fillColor=#dae8fc;strokeColor=#6c8ebf;fillStyle=solid;" vertex="1" parent="1">
          <mxGeometry x="997.5" y="641" width="155" height="50" as="geometry" />
        </mxCell>
        <mxCell id="0g1072mod6FUskHtr54z-41" value="&lt;span style=&quot;font-family: &amp;quot;Comic Sans MS&amp;quot;;&quot;&gt;identity_account_profile&lt;/span&gt;" style="whiteSpace=wrap;html=1;sketch=1;fillColor=#f8cecc;strokeColor=#b85450;fillStyle=solid;" vertex="1" parent="1">
          <mxGeometry x="966.5" y="170" width="155" height="50" as="geometry" />
        </mxCell>
        <mxCell id="0g1072mod6FUskHtr54z-42" value="&lt;span style=&quot;font-family: &amp;quot;Comic Sans MS&amp;quot;;&quot;&gt;identity_account_wechat&lt;/span&gt;" style="whiteSpace=wrap;html=1;sketch=1;fillColor=#f8cecc;strokeColor=#b85450;fillStyle=solid;" vertex="1" parent="1">
          <mxGeometry x="1130" y="234" width="155" height="50" as="geometry" />
        </mxCell>
        <mxCell id="0g1072mod6FUskHtr54z-43" value="&lt;font face=&quot;Comic Sans MS&quot;&gt;identity_session_kicked_log&lt;/font&gt;" style="whiteSpace=wrap;html=1;sketch=1;fillColor=#f8cecc;strokeColor=#b85450;fillStyle=solid;" vertex="1" parent="1">
          <mxGeometry x="1175" y="300" width="160" height="50" as="geometry" />
        </mxCell>
        <mxCell id="0g1072mod6FUskHtr54z-44" value="&lt;span style=&quot;font-family: &amp;quot;Comic Sans MS&amp;quot;;&quot;&gt;bop_user_information&lt;/span&gt;" style="whiteSpace=wrap;html=1;sketch=1;fillColor=#f8cecc;strokeColor=#b85450;fillStyle=solid;" vertex="1" parent="1">
          <mxGeometry x="1163" y="378.75" width="155" height="50" as="geometry" />
        </mxCell>
        <mxCell id="0g1072mod6FUskHtr54z-45" value="&lt;span style=&quot;font-family: &amp;quot;Comic Sans MS&amp;quot;;&quot;&gt;bop_user_password&lt;/span&gt;" style="whiteSpace=wrap;html=1;sketch=1;fillColor=#f8cecc;strokeColor=#b85450;fillStyle=solid;" vertex="1" parent="1">
          <mxGeometry x="1140" y="460" width="155" height="50" as="geometry" />
        </mxCell>
        <mxCell id="0g1072mod6FUskHtr54z-46" value="&lt;span style=&quot;font-family: &amp;quot;Comic Sans MS&amp;quot;;&quot;&gt;bop_user_policy&lt;/span&gt;" style="whiteSpace=wrap;html=1;sketch=1;fillColor=#f8cecc;strokeColor=#b85450;fillStyle=solid;" vertex="1" parent="1">
          <mxGeometry x="975" y="530" width="155" height="50" as="geometry" />
        </mxCell>
        <mxCell id="0g1072mod6FUskHtr54z-47" value="&lt;span style=&quot;font-family: &amp;quot;Comic Sans MS&amp;quot;;&quot;&gt;bop_user_product_register&lt;/span&gt;" style="whiteSpace=wrap;html=1;sketch=1;fillColor=#f8cecc;strokeColor=#b85450;fillStyle=solid;" vertex="1" parent="1">
          <mxGeometry x="811.5" y="440" width="155" height="50" as="geometry" />
        </mxCell>
        <mxCell id="0g1072mod6FUskHtr54z-48" value="&lt;span style=&quot;font-family: &amp;quot;Comic Sans MS&amp;quot;;&quot;&gt;bop_user_settings&lt;/span&gt;" style="whiteSpace=wrap;html=1;sketch=1;fillColor=#dae8fc;strokeColor=#6c8ebf;fillStyle=solid;" vertex="1" parent="1">
          <mxGeometry x="811.5" y="720" width="155" height="50" as="geometry" />
        </mxCell>
        <mxCell id="0g1072mod6FUskHtr54z-49" value="&lt;span style=&quot;font-family: &amp;quot;Comic Sans MS&amp;quot;;&quot;&gt;bop_working_case_item&lt;/span&gt;" style="whiteSpace=wrap;html=1;sketch=1;fillColor=#dae8fc;strokeColor=#6c8ebf;fillStyle=solid;" vertex="1" parent="1">
          <mxGeometry x="1020" y="980" width="155" height="50" as="geometry" />
        </mxCell>
        <mxCell id="0g1072mod6FUskHtr54z-50" value="&lt;font face=&quot;Comic Sans MS&quot;&gt;bop_account_last_login&lt;/font&gt;" style="whiteSpace=wrap;html=1;sketch=1;fillColor=#e1d5e7;strokeColor=#9673a6;fillStyle=solid;" vertex="1" parent="1">
          <mxGeometry x="847.5" y="930" width="140" height="50" as="geometry" />
        </mxCell>
        <mxCell id="0g1072mod6FUskHtr54z-51" value="&lt;font face=&quot;Comic Sans MS&quot;&gt;bop_account_last_login&lt;/font&gt;" style="whiteSpace=wrap;html=1;sketch=1;fillColor=#e1d5e7;strokeColor=#9673a6;fillStyle=solid;" vertex="1" parent="1">
          <mxGeometry x="794" y="328.75" width="140" height="50" as="geometry" />
        </mxCell>
        <mxCell id="0g1072mod6FUskHtr54z-52" value="&lt;font face=&quot;Comic Sans MS&quot;&gt;identity_account_role&lt;/font&gt;" style="whiteSpace=wrap;html=1;sketch=1;fillColor=#dae8fc;strokeColor=#6c8ebf;fillStyle=solid;" vertex="1" parent="1">
          <mxGeometry x="1210" y="810" width="160" height="50" as="geometry" />
        </mxCell>
        <mxCell id="0g1072mod6FUskHtr54z-53" value="&lt;font face=&quot;Comic Sans MS&quot;&gt;identity_account_dingtalk&lt;/font&gt;" style="whiteSpace=wrap;html=1;sketch=1;fillColor=#dae8fc;strokeColor=#6c8ebf;fillStyle=solid;" vertex="1" parent="1">
          <mxGeometry x="1170" y="720" width="160" height="50" as="geometry" />
        </mxCell>
        <mxCell id="0g1072mod6FUskHtr54z-54" value="&lt;font face=&quot;Comic Sans MS&quot;&gt;identity_account_package&lt;/font&gt;" style="whiteSpace=wrap;html=1;sketch=1;fillColor=#dae8fc;strokeColor=#6c8ebf;fillStyle=solid;" vertex="1" parent="1">
          <mxGeometry x="1200" y="900" width="160" height="50" as="geometry" />
        </mxCell>
        <mxCell id="0g1072mod6FUskHtr54z-55" value="&lt;font face=&quot;Comic Sans MS&quot;&gt;identity_account_company&lt;/font&gt;" style="whiteSpace=wrap;html=1;sketch=1;fillColor=#f5f5f5;strokeColor=#666666;fontColor=#333333;fillStyle=solid;" vertex="1" parent="1">
          <mxGeometry x="950" y="1110" width="160" height="50" as="geometry" />
        </mxCell>
        <mxCell id="0g1072mod6FUskHtr54z-56" value="" style="endArrow=none;dashed=1;html=1;rounded=0;fontFamily=Comic Sans MS;exitX=1;exitY=0.75;exitDx=0;exitDy=0;sketch=1;entryX=0;entryY=0;entryDx=0;entryDy=0;" edge="1" parent="1" source="3neiedSfOhpBUjfjLAKO-7" target="0g1072mod6FUskHtr54z-54">
          <mxGeometry width="50" height="50" relative="1" as="geometry">
            <mxPoint x="1140" y="852.5" as="sourcePoint" />
            <mxPoint x="1230" y="838" as="targetPoint" />
          </mxGeometry>
        </mxCell>
        <mxCell id="0g1072mod6FUskHtr54z-57" value="" style="endArrow=none;dashed=1;html=1;rounded=0;fontFamily=Comic Sans MS;exitX=0.5;exitY=1;exitDx=0;exitDy=0;sketch=1;entryX=0.5;entryY=0;entryDx=0;entryDy=0;" edge="1" parent="1" source="3neiedSfOhpBUjfjLAKO-7" target="0g1072mod6FUskHtr54z-49">
          <mxGeometry width="50" height="50" relative="1" as="geometry">
            <mxPoint x="1140" y="865" as="sourcePoint" />
            <mxPoint x="1210" y="910" as="targetPoint" />
          </mxGeometry>
        </mxCell>
        <mxCell id="0g1072mod6FUskHtr54z-58" value="" style="endArrow=none;dashed=1;html=1;rounded=0;fontFamily=Comic Sans MS;exitX=0;exitY=1;exitDx=0;exitDy=0;sketch=1;entryX=1;entryY=0;entryDx=0;entryDy=0;" edge="1" parent="1" source="3neiedSfOhpBUjfjLAKO-7" target="0g1072mod6FUskHtr54z-50">
          <mxGeometry width="50" height="50" relative="1" as="geometry">
            <mxPoint x="1085" y="890" as="sourcePoint" />
            <mxPoint x="1107.5" y="990" as="targetPoint" />
          </mxGeometry>
        </mxCell>
        <mxCell id="0g1072mod6FUskHtr54z-59" value="" style="endArrow=none;dashed=1;html=1;rounded=0;fontFamily=Comic Sans MS;exitX=0.25;exitY=0;exitDx=0;exitDy=0;sketch=1;entryX=1;entryY=0.5;entryDx=0;entryDy=0;" edge="1" parent="1" source="3neiedSfOhpBUjfjLAKO-7" target="0g1072mod6FUskHtr54z-48">
          <mxGeometry width="50" height="50" relative="1" as="geometry">
            <mxPoint x="1030" y="890" as="sourcePoint" />
            <mxPoint x="997.5" y="940" as="targetPoint" />
          </mxGeometry>
        </mxCell>
        <mxCell id="0g1072mod6FUskHtr54z-60" value="" style="endArrow=none;dashed=1;html=1;rounded=0;fontFamily=Comic Sans MS;exitX=0;exitY=0.5;exitDx=0;exitDy=0;sketch=1;entryX=1;entryY=0.5;entryDx=0;entryDy=0;" edge="1" parent="1" source="3neiedSfOhpBUjfjLAKO-7" target="0g1072mod6FUskHtr54z-39">
          <mxGeometry width="50" height="50" relative="1" as="geometry">
            <mxPoint x="1030" y="865" as="sourcePoint" />
            <mxPoint x="977" y="820" as="targetPoint" />
          </mxGeometry>
        </mxCell>
        <mxCell id="0g1072mod6FUskHtr54z-61" value="" style="endArrow=none;dashed=1;html=1;rounded=0;fontFamily=Comic Sans MS;exitX=0.5;exitY=0;exitDx=0;exitDy=0;sketch=1;entryX=0.5;entryY=1;entryDx=0;entryDy=0;" edge="1" parent="1" source="3neiedSfOhpBUjfjLAKO-7" target="0g1072mod6FUskHtr54z-40">
          <mxGeometry width="50" height="50" relative="1" as="geometry">
            <mxPoint x="1057.5" y="840" as="sourcePoint" />
            <mxPoint x="997.5" y="777.5" as="targetPoint" />
          </mxGeometry>
        </mxCell>
        <mxCell id="0g1072mod6FUskHtr54z-62" value="" style="endArrow=none;dashed=1;html=1;rounded=0;fontFamily=Comic Sans MS;exitX=0.75;exitY=0;exitDx=0;exitDy=0;sketch=1;entryX=0;entryY=0.5;entryDx=0;entryDy=0;" edge="1" parent="1" source="3neiedSfOhpBUjfjLAKO-7" target="0g1072mod6FUskHtr54z-53">
          <mxGeometry width="50" height="50" relative="1" as="geometry">
            <mxPoint x="1085" y="840" as="sourcePoint" />
            <mxPoint x="1091.5" y="730" as="targetPoint" />
          </mxGeometry>
        </mxCell>
        <mxCell id="0g1072mod6FUskHtr54z-63" value="" style="endArrow=none;dashed=1;html=1;dashPattern=1 3;strokeWidth=2;rounded=0;fontFamily=Comic Sans MS;entryX=0.75;entryY=0;entryDx=0;entryDy=0;exitX=0;exitY=0.75;exitDx=0;exitDy=0;sketch=1;" edge="1" parent="1" source="0g1072mod6FUskHtr54z-42" target="3neiedSfOhpBUjfjLAKO-6">
          <mxGeometry width="50" height="50" relative="1" as="geometry">
            <mxPoint x="1185" y="335" as="sourcePoint" />
            <mxPoint x="1109" y="360" as="targetPoint" />
          </mxGeometry>
        </mxCell>
        <mxCell id="0g1072mod6FUskHtr54z-64" value="" style="endArrow=none;dashed=1;html=1;dashPattern=1 3;strokeWidth=2;rounded=0;fontFamily=Comic Sans MS;entryX=0.5;entryY=0;entryDx=0;entryDy=0;sketch=1;exitX=0.5;exitY=1;exitDx=0;exitDy=0;" edge="1" parent="1" source="0g1072mod6FUskHtr54z-41" target="3neiedSfOhpBUjfjLAKO-6">
          <mxGeometry width="50" height="50" relative="1" as="geometry">
            <mxPoint x="1044" y="230" as="sourcePoint" />
            <mxPoint x="1081.5" y="360" as="targetPoint" />
          </mxGeometry>
        </mxCell>
        <mxCell id="0g1072mod6FUskHtr54z-65" value="" style="endArrow=none;dashed=1;html=1;dashPattern=1 3;strokeWidth=2;rounded=0;fontFamily=Comic Sans MS;entryX=0.25;entryY=0;entryDx=0;entryDy=0;exitX=1;exitY=0.75;exitDx=0;exitDy=0;sketch=1;" edge="1" parent="1" source="0g1072mod6FUskHtr54z-38" target="3neiedSfOhpBUjfjLAKO-6">
          <mxGeometry width="50" height="50" relative="1" as="geometry">
            <mxPoint x="1054" y="230" as="sourcePoint" />
            <mxPoint x="1054" y="360" as="targetPoint" />
          </mxGeometry>
        </mxCell>
        <mxCell id="0g1072mod6FUskHtr54z-66" value="" style="endArrow=none;dashed=1;html=1;dashPattern=1 3;strokeWidth=2;rounded=0;fontFamily=Comic Sans MS;exitX=1;exitY=0.5;exitDx=0;exitDy=0;sketch=1;entryX=0;entryY=0.25;entryDx=0;entryDy=0;" edge="1" parent="1" source="0g1072mod6FUskHtr54z-51" target="3neiedSfOhpBUjfjLAKO-6">
          <mxGeometry width="50" height="50" relative="1" as="geometry">
            <mxPoint x="1064" y="240" as="sourcePoint" />
            <mxPoint x="1070" y="370" as="targetPoint" />
          </mxGeometry>
        </mxCell>
        <mxCell id="0g1072mod6FUskHtr54z-68" value="" style="endArrow=none;dashed=1;html=1;dashPattern=1 3;strokeWidth=2;rounded=0;fontFamily=Comic Sans MS;exitX=1;exitY=0.5;exitDx=0;exitDy=0;sketch=1;entryX=0.25;entryY=1;entryDx=0;entryDy=0;" edge="1" parent="1" source="0g1072mod6FUskHtr54z-47" target="3neiedSfOhpBUjfjLAKO-6">
          <mxGeometry width="50" height="50" relative="1" as="geometry">
            <mxPoint x="944" y="363.75" as="sourcePoint" />
            <mxPoint x="999" y="385" as="targetPoint" />
          </mxGeometry>
        </mxCell>
        <mxCell id="0g1072mod6FUskHtr54z-69" value="" style="endArrow=none;dashed=1;html=1;dashPattern=1 3;strokeWidth=2;rounded=0;fontFamily=Comic Sans MS;exitX=0.5;exitY=0;exitDx=0;exitDy=0;sketch=1;entryX=0.5;entryY=1;entryDx=0;entryDy=0;" edge="1" parent="1" source="0g1072mod6FUskHtr54z-46" target="3neiedSfOhpBUjfjLAKO-6">
          <mxGeometry width="50" height="50" relative="1" as="geometry">
            <mxPoint x="954" y="373.75" as="sourcePoint" />
            <mxPoint x="1009" y="395" as="targetPoint" />
          </mxGeometry>
        </mxCell>
        <mxCell id="0g1072mod6FUskHtr54z-71" value="" style="endArrow=none;dashed=1;html=1;dashPattern=1 3;strokeWidth=2;rounded=0;fontFamily=Comic Sans MS;exitX=0;exitY=0.25;exitDx=0;exitDy=0;sketch=1;entryX=1;entryY=1;entryDx=0;entryDy=0;" edge="1" parent="1" source="0g1072mod6FUskHtr54z-45" target="3neiedSfOhpBUjfjLAKO-6">
          <mxGeometry width="50" height="50" relative="1" as="geometry">
            <mxPoint x="1062.5" y="540" as="sourcePoint" />
            <mxPoint x="1054" y="410" as="targetPoint" />
          </mxGeometry>
        </mxCell>
        <mxCell id="0g1072mod6FUskHtr54z-72" value="" style="endArrow=none;dashed=1;html=1;dashPattern=1 3;strokeWidth=2;rounded=0;fontFamily=Comic Sans MS;exitX=0;exitY=0.5;exitDx=0;exitDy=0;sketch=1;entryX=1;entryY=0.5;entryDx=0;entryDy=0;" edge="1" parent="1" source="0g1072mod6FUskHtr54z-44" target="3neiedSfOhpBUjfjLAKO-6">
          <mxGeometry width="50" height="50" relative="1" as="geometry">
            <mxPoint x="1150" y="482.5" as="sourcePoint" />
            <mxPoint x="1109" y="410" as="targetPoint" />
          </mxGeometry>
        </mxCell>
        <mxCell id="7KdhA769VSDEmrFlJWCD-1" value="" style="rounded=0;whiteSpace=wrap;html=1;fontFamily=Comic Sans MS;fontSize=10;fillColor=#f8cecc;strokeColor=#b85450;" vertex="1" parent="1">
          <mxGeometry x="1480" y="180" width="60" height="20" as="geometry" />
        </mxCell>
        <mxCell id="7KdhA769VSDEmrFlJWCD-2" value="" style="rounded=0;whiteSpace=wrap;html=1;fontFamily=Comic Sans MS;fontSize=10;fillColor=#fff2cc;strokeColor=#d6b656;" vertex="1" parent="1">
          <mxGeometry x="1480" y="140" width="60" height="20" as="geometry" />
        </mxCell>
        <mxCell id="7KdhA769VSDEmrFlJWCD-3" value="" style="rounded=0;whiteSpace=wrap;html=1;fontFamily=Comic Sans MS;fontSize=10;fillColor=#dae8fc;strokeColor=#6c8ebf;" vertex="1" parent="1">
          <mxGeometry x="1480" y="220" width="60" height="20" as="geometry" />
        </mxCell>
        <mxCell id="7KdhA769VSDEmrFlJWCD-4" value="identity_account" style="text;html=1;align=center;verticalAlign=middle;resizable=0;points=[];autosize=1;strokeColor=none;fillColor=none;fontSize=10;fontFamily=Comic Sans MS;" vertex="1" parent="1">
          <mxGeometry x="1540" y="140" width="110" height="20" as="geometry" />
        </mxCell>
        <mxCell id="7KdhA769VSDEmrFlJWCD-5" value="patsnap_user" style="text;html=1;align=center;verticalAlign=middle;resizable=0;points=[];autosize=1;strokeColor=none;fillColor=none;fontSize=10;fontFamily=Comic Sans MS;" vertex="1" parent="1">
          <mxGeometry x="1540" y="180" width="90" height="20" as="geometry" />
        </mxCell>
        <mxCell id="7KdhA769VSDEmrFlJWCD-6" value="tenant_user" style="text;html=1;align=center;verticalAlign=middle;resizable=0;points=[];autosize=1;strokeColor=none;fillColor=none;fontSize=10;fontFamily=Comic Sans MS;" vertex="1" parent="1">
          <mxGeometry x="1540" y="220" width="80" height="20" as="geometry" />
        </mxCell>
        <mxCell id="7KdhA769VSDEmrFlJWCD-8" value="" style="rounded=0;whiteSpace=wrap;html=1;fontFamily=Comic Sans MS;fontSize=10;fillColor=#e1d5e7;strokeColor=#9673a6;" vertex="1" parent="1">
          <mxGeometry x="1480" y="258" width="60" height="20" as="geometry" />
        </mxCell>
        <mxCell id="7KdhA769VSDEmrFlJWCD-9" value="Both patsnap/&lt;br&gt;tenant user" style="text;html=1;align=center;verticalAlign=middle;resizable=0;points=[];autosize=1;strokeColor=none;fillColor=none;fontSize=10;fontFamily=Comic Sans MS;" vertex="1" parent="1">
          <mxGeometry x="1540" y="253" width="90" height="30" as="geometry" />
        </mxCell>
      </root>
    </mxGraphModel>
  </diagram>
</mxfile>
